<mxfile host="app.diagrams.net" modified="2022-07-31T22:43:57.764Z" agent="5.0 (Windows NT 6.1; Win64; x64) AppleWebKit/537.36 (KHTML, like Gecko) Chrome/103.0.0.0 Safari/537.36" etag="nhEm5DO49cIN9Gw1kOMQ" version="15.5.9" type="github">
  <diagram id="fiLEmaT8gGbax_Rolm4f" name="Page-1">
    <mxGraphModel dx="868" dy="450" grid="1" gridSize="10" guides="1" tooltips="1" connect="1" arrows="1" fold="1" page="1" pageScale="1" pageWidth="827" pageHeight="1169" math="0" shadow="0">
      <root>
        <mxCell id="0" />
        <mxCell id="1" parent="0" />
        <mxCell id="yjS9Mm-tfeJwQ1dK4dnb-1" value="User" style="shape=umlActor;verticalLabelPosition=bottom;verticalAlign=top;html=1;outlineConnect=0;fillColor=#f8cecc;strokeColor=#b85450;" vertex="1" parent="1">
          <mxGeometry x="60" y="50" width="30" height="60" as="geometry" />
        </mxCell>
        <mxCell id="yjS9Mm-tfeJwQ1dK4dnb-2" value="Registe" style="ellipse;whiteSpace=wrap;html=1;fillColor=#d5e8d4;strokeColor=#82b366;" vertex="1" parent="1">
          <mxGeometry x="250" y="30" width="150" height="70" as="geometry" />
        </mxCell>
        <mxCell id="yjS9Mm-tfeJwQ1dK4dnb-3" value="Login" style="ellipse;whiteSpace=wrap;html=1;fillColor=#d5e8d4;strokeColor=#82b366;" vertex="1" parent="1">
          <mxGeometry x="250" y="120" width="150" height="70" as="geometry" />
        </mxCell>
        <mxCell id="yjS9Mm-tfeJwQ1dK4dnb-4" value="View List of services&amp;nbsp;" style="ellipse;whiteSpace=wrap;html=1;fillColor=#d5e8d4;strokeColor=#82b366;" vertex="1" parent="1">
          <mxGeometry x="330" y="390" width="150" height="70" as="geometry" />
        </mxCell>
        <mxCell id="yjS9Mm-tfeJwQ1dK4dnb-5" value="View List of companies" style="ellipse;whiteSpace=wrap;html=1;fillColor=#d5e8d4;strokeColor=#82b366;" vertex="1" parent="1">
          <mxGeometry x="330" y="240" width="150" height="70" as="geometry" />
        </mxCell>
        <mxCell id="yjS9Mm-tfeJwQ1dK4dnb-6" value="List of agencies -&lt;br&gt;available&amp;nbsp;" style="ellipse;whiteSpace=wrap;html=1;fillColor=#d5e8d4;strokeColor=#82b366;" vertex="1" parent="1">
          <mxGeometry x="330" y="510" width="150" height="70" as="geometry" />
        </mxCell>
        <mxCell id="yjS9Mm-tfeJwQ1dK4dnb-8" value="" style="endArrow=none;html=1;rounded=0;entryX=0;entryY=0.5;entryDx=0;entryDy=0;fillColor=#fff2cc;strokeColor=#d6b656;" edge="1" parent="1" target="yjS9Mm-tfeJwQ1dK4dnb-3">
          <mxGeometry width="50" height="50" relative="1" as="geometry">
            <mxPoint x="110" y="70" as="sourcePoint" />
            <mxPoint x="140" y="50" as="targetPoint" />
          </mxGeometry>
        </mxCell>
        <mxCell id="yjS9Mm-tfeJwQ1dK4dnb-10" value="" style="endArrow=none;html=1;rounded=0;entryX=0;entryY=0.5;entryDx=0;entryDy=0;fillColor=#fff2cc;strokeColor=#d6b656;" edge="1" parent="1" target="yjS9Mm-tfeJwQ1dK4dnb-2">
          <mxGeometry width="50" height="50" relative="1" as="geometry">
            <mxPoint x="110" y="70" as="sourcePoint" />
            <mxPoint x="440" y="190" as="targetPoint" />
          </mxGeometry>
        </mxCell>
        <mxCell id="yjS9Mm-tfeJwQ1dK4dnb-11" value="" style="endArrow=none;html=1;rounded=0;exitX=0;exitY=0.5;exitDx=0;exitDy=0;fillColor=#ffe6cc;strokeColor=#d79b00;" edge="1" parent="1" source="yjS9Mm-tfeJwQ1dK4dnb-5">
          <mxGeometry width="50" height="50" relative="1" as="geometry">
            <mxPoint x="390" y="260" as="sourcePoint" />
            <mxPoint x="110" y="70" as="targetPoint" />
          </mxGeometry>
        </mxCell>
        <mxCell id="yjS9Mm-tfeJwQ1dK4dnb-12" value="" style="endArrow=none;html=1;rounded=0;exitX=0;exitY=0.5;exitDx=0;exitDy=0;fillColor=#fff2cc;strokeColor=#d6b656;" edge="1" parent="1" source="yjS9Mm-tfeJwQ1dK4dnb-4">
          <mxGeometry width="50" height="50" relative="1" as="geometry">
            <mxPoint x="390" y="260" as="sourcePoint" />
            <mxPoint x="110" y="70" as="targetPoint" />
          </mxGeometry>
        </mxCell>
        <mxCell id="yjS9Mm-tfeJwQ1dK4dnb-13" value="" style="endArrow=none;html=1;rounded=0;exitX=0;exitY=0.5;exitDx=0;exitDy=0;fillColor=#fff2cc;strokeColor=#d6b656;" edge="1" parent="1" source="yjS9Mm-tfeJwQ1dK4dnb-6">
          <mxGeometry width="50" height="50" relative="1" as="geometry">
            <mxPoint x="390" y="260" as="sourcePoint" />
            <mxPoint x="110" y="70" as="targetPoint" />
          </mxGeometry>
        </mxCell>
        <mxCell id="yjS9Mm-tfeJwQ1dK4dnb-14" value="Recevied notification" style="ellipse;whiteSpace=wrap;html=1;fillColor=#d5e8d4;strokeColor=#82b366;" vertex="1" parent="1">
          <mxGeometry x="330" y="630" width="150" height="70" as="geometry" />
        </mxCell>
        <mxCell id="yjS9Mm-tfeJwQ1dK4dnb-15" value="" style="endArrow=none;html=1;rounded=0;fillColor=#fff2cc;strokeColor=#d6b656;exitX=0;exitY=0.5;exitDx=0;exitDy=0;" edge="1" parent="1" source="yjS9Mm-tfeJwQ1dK4dnb-14">
          <mxGeometry width="50" height="50" relative="1" as="geometry">
            <mxPoint x="240" y="540" as="sourcePoint" />
            <mxPoint x="110" y="70" as="targetPoint" />
          </mxGeometry>
        </mxCell>
        <mxCell id="yjS9Mm-tfeJwQ1dK4dnb-18" value="extend" style="endArrow=classic;html=1;rounded=0;entryX=0.987;entryY=0.4;entryDx=0;entryDy=0;entryPerimeter=0;exitX=0;exitY=0.5;exitDx=0;exitDy=0;fillColor=#fff2cc;strokeColor=#d6b656;" edge="1" parent="1" source="yjS9Mm-tfeJwQ1dK4dnb-20" target="yjS9Mm-tfeJwQ1dK4dnb-5">
          <mxGeometry width="50" height="50" relative="1" as="geometry">
            <mxPoint x="480" y="220" as="sourcePoint" />
            <mxPoint x="390" y="250" as="targetPoint" />
            <Array as="points" />
          </mxGeometry>
        </mxCell>
        <mxCell id="yjS9Mm-tfeJwQ1dK4dnb-19" value="extend" style="endArrow=classic;html=1;rounded=0;entryX=0.98;entryY=0.629;entryDx=0;entryDy=0;entryPerimeter=0;exitX=0;exitY=0.5;exitDx=0;exitDy=0;fillColor=#fff2cc;strokeColor=#d6b656;" edge="1" parent="1" source="yjS9Mm-tfeJwQ1dK4dnb-21" target="yjS9Mm-tfeJwQ1dK4dnb-5">
          <mxGeometry width="50" height="50" relative="1" as="geometry">
            <mxPoint x="480" y="300" as="sourcePoint" />
            <mxPoint x="410" y="275" as="targetPoint" />
            <Array as="points" />
          </mxGeometry>
        </mxCell>
        <mxCell id="yjS9Mm-tfeJwQ1dK4dnb-20" value="Filter by category" style="ellipse;whiteSpace=wrap;html=1;fillColor=#d5e8d4;strokeColor=#82b366;" vertex="1" parent="1">
          <mxGeometry x="580" y="150" width="150" height="70" as="geometry" />
        </mxCell>
        <mxCell id="yjS9Mm-tfeJwQ1dK4dnb-21" value="pick one company" style="ellipse;whiteSpace=wrap;html=1;fillColor=#d5e8d4;strokeColor=#82b366;" vertex="1" parent="1">
          <mxGeometry x="580" y="280" width="150" height="70" as="geometry" />
        </mxCell>
        <mxCell id="yjS9Mm-tfeJwQ1dK4dnb-25" value="extend" style="edgeStyle=orthogonalEdgeStyle;rounded=0;orthogonalLoop=1;jettySize=auto;html=1;exitX=0;exitY=0.5;exitDx=0;exitDy=0;entryX=1;entryY=0.5;entryDx=0;entryDy=0;fillColor=#fff2cc;strokeColor=#d6b656;" edge="1" parent="1" source="yjS9Mm-tfeJwQ1dK4dnb-22" target="yjS9Mm-tfeJwQ1dK4dnb-4">
          <mxGeometry relative="1" as="geometry" />
        </mxCell>
        <mxCell id="yjS9Mm-tfeJwQ1dK4dnb-22" value="pick one service" style="ellipse;whiteSpace=wrap;html=1;strokeColor=#82b366;fillColor=#d5e8d4;" vertex="1" parent="1">
          <mxGeometry x="580" y="392.5" width="150" height="65" as="geometry" />
        </mxCell>
        <mxCell id="yjS9Mm-tfeJwQ1dK4dnb-27" style="edgeStyle=orthogonalEdgeStyle;rounded=0;orthogonalLoop=1;jettySize=auto;html=1;entryX=1;entryY=0.5;entryDx=0;entryDy=0;fillColor=#fff2cc;strokeColor=#d6b656;" edge="1" parent="1" source="yjS9Mm-tfeJwQ1dK4dnb-26" target="yjS9Mm-tfeJwQ1dK4dnb-6">
          <mxGeometry relative="1" as="geometry" />
        </mxCell>
        <mxCell id="yjS9Mm-tfeJwQ1dK4dnb-28" value="extend" style="edgeLabel;html=1;align=center;verticalAlign=middle;resizable=0;points=[];" vertex="1" connectable="0" parent="yjS9Mm-tfeJwQ1dK4dnb-27">
          <mxGeometry x="-0.2182" y="-3" relative="1" as="geometry">
            <mxPoint as="offset" />
          </mxGeometry>
        </mxCell>
        <mxCell id="yjS9Mm-tfeJwQ1dK4dnb-26" value="pick one agency" style="ellipse;whiteSpace=wrap;html=1;strokeColor=#82b366;fillColor=#d5e8d4;" vertex="1" parent="1">
          <mxGeometry x="590" y="512.5" width="150" height="65" as="geometry" />
        </mxCell>
        <mxCell id="yjS9Mm-tfeJwQ1dK4dnb-29" value="" style="shape=umlActor;verticalLabelPosition=bottom;verticalAlign=top;html=1;outlineConnect=0;fillColor=#ffe6cc;strokeColor=#d79b00;" vertex="1" parent="1">
          <mxGeometry x="750" y="760" width="30" height="60" as="geometry" />
        </mxCell>
        <mxCell id="yjS9Mm-tfeJwQ1dK4dnb-32" value="" style="shape=umlActor;verticalLabelPosition=bottom;verticalAlign=top;html=1;outlineConnect=0;fillColor=#dae8fc;strokeColor=#6c8ebf;" vertex="1" parent="1">
          <mxGeometry x="40" y="770" width="30" height="60" as="geometry" />
        </mxCell>
        <mxCell id="yjS9Mm-tfeJwQ1dK4dnb-35" value="Register" style="ellipse;whiteSpace=wrap;html=1;fillColor=#d5e8d4;strokeColor=#82b366;" vertex="1" parent="1">
          <mxGeometry x="300" y="770" width="150" height="70" as="geometry" />
        </mxCell>
        <mxCell id="yjS9Mm-tfeJwQ1dK4dnb-36" value="Login" style="ellipse;whiteSpace=wrap;html=1;fillColor=#d5e8d4;strokeColor=#82b366;" vertex="1" parent="1">
          <mxGeometry x="300" y="860" width="150" height="70" as="geometry" />
        </mxCell>
        <mxCell id="yjS9Mm-tfeJwQ1dK4dnb-37" value="view listes of agencies" style="ellipse;whiteSpace=wrap;html=1;fillColor=#d5e8d4;strokeColor=#82b366;" vertex="1" parent="1">
          <mxGeometry x="300" y="950" width="150" height="70" as="geometry" />
        </mxCell>
        <mxCell id="yjS9Mm-tfeJwQ1dK4dnb-38" value="manage agancies" style="ellipse;whiteSpace=wrap;html=1;fillColor=#d5e8d4;strokeColor=#82b366;" vertex="1" parent="1">
          <mxGeometry x="300" y="1040" width="150" height="70" as="geometry" />
        </mxCell>
        <mxCell id="yjS9Mm-tfeJwQ1dK4dnb-39" value="Company" style="text;html=1;align=center;verticalAlign=middle;resizable=0;points=[];autosize=1;strokeColor=none;fillColor=none;" vertex="1" parent="1">
          <mxGeometry x="25" y="850" width="70" height="20" as="geometry" />
        </mxCell>
        <mxCell id="yjS9Mm-tfeJwQ1dK4dnb-41" value="manage services" style="ellipse;whiteSpace=wrap;html=1;fillColor=#d5e8d4;strokeColor=#82b366;" vertex="1" parent="1">
          <mxGeometry x="300" y="1130" width="150" height="70" as="geometry" />
        </mxCell>
        <mxCell id="yjS9Mm-tfeJwQ1dK4dnb-42" value="update service &lt;br&gt;availblity" style="ellipse;whiteSpace=wrap;html=1;fillColor=#d5e8d4;strokeColor=#82b366;" vertex="1" parent="1">
          <mxGeometry x="540" y="950" width="150" height="70" as="geometry" />
        </mxCell>
        <mxCell id="yjS9Mm-tfeJwQ1dK4dnb-43" value="manage tickets" style="ellipse;whiteSpace=wrap;html=1;fillColor=#d5e8d4;strokeColor=#82b366;" vertex="1" parent="1">
          <mxGeometry x="540" y="1050" width="150" height="70" as="geometry" />
        </mxCell>
        <mxCell id="yjS9Mm-tfeJwQ1dK4dnb-44" value="" style="endArrow=none;html=1;rounded=0;shape=link;entryX=0;entryY=0.5;entryDx=0;entryDy=0;fillColor=#f8cecc;strokeColor=#b85450;" edge="1" parent="1" target="yjS9Mm-tfeJwQ1dK4dnb-36">
          <mxGeometry width="50" height="50" relative="1" as="geometry">
            <mxPoint x="80" y="810" as="sourcePoint" />
            <mxPoint x="440" y="940" as="targetPoint" />
            <Array as="points" />
          </mxGeometry>
        </mxCell>
        <mxCell id="yjS9Mm-tfeJwQ1dK4dnb-46" value="" style="endArrow=none;html=1;rounded=0;shape=link;entryX=0.033;entryY=0.314;entryDx=0;entryDy=0;entryPerimeter=0;fillColor=#f8cecc;strokeColor=#b85450;" edge="1" parent="1" target="yjS9Mm-tfeJwQ1dK4dnb-37">
          <mxGeometry width="50" height="50" relative="1" as="geometry">
            <mxPoint x="80" y="810" as="sourcePoint" />
            <mxPoint x="300" y="985" as="targetPoint" />
            <Array as="points" />
          </mxGeometry>
        </mxCell>
        <mxCell id="yjS9Mm-tfeJwQ1dK4dnb-47" value="" style="endArrow=none;html=1;rounded=0;shape=link;exitX=1;exitY=0.5;exitDx=0;exitDy=0;width=-3;fillColor=#f8cecc;strokeColor=#b85450;" edge="1" parent="1" source="yjS9Mm-tfeJwQ1dK4dnb-35">
          <mxGeometry width="50" height="50" relative="1" as="geometry">
            <mxPoint x="480" y="835" as="sourcePoint" />
            <mxPoint x="740" y="810" as="targetPoint" />
            <Array as="points" />
          </mxGeometry>
        </mxCell>
        <mxCell id="yjS9Mm-tfeJwQ1dK4dnb-48" value="" style="endArrow=none;html=1;rounded=0;shape=link;exitX=1;exitY=0.5;exitDx=0;exitDy=0;width=-3;fillColor=#f8cecc;strokeColor=#b85450;" edge="1" parent="1" source="yjS9Mm-tfeJwQ1dK4dnb-36">
          <mxGeometry width="50" height="50" relative="1" as="geometry">
            <mxPoint x="460" y="815" as="sourcePoint" />
            <mxPoint x="740" y="810" as="targetPoint" />
            <Array as="points" />
          </mxGeometry>
        </mxCell>
        <mxCell id="yjS9Mm-tfeJwQ1dK4dnb-49" value="" style="endArrow=none;html=1;rounded=0;shape=link;width=5;fillColor=#f8cecc;strokeColor=#b85450;" edge="1" parent="1" source="yjS9Mm-tfeJwQ1dK4dnb-42">
          <mxGeometry width="50" height="50" relative="1" as="geometry">
            <mxPoint x="460" y="905" as="sourcePoint" />
            <mxPoint x="740" y="810" as="targetPoint" />
            <Array as="points">
              <mxPoint x="740" y="810" />
            </Array>
          </mxGeometry>
        </mxCell>
        <mxCell id="yjS9Mm-tfeJwQ1dK4dnb-50" value="" style="endArrow=none;html=1;rounded=0;shape=link;exitX=1;exitY=0.5;exitDx=0;exitDy=0;width=-3;fillColor=#f8cecc;strokeColor=#b85450;" edge="1" parent="1" source="yjS9Mm-tfeJwQ1dK4dnb-43">
          <mxGeometry width="50" height="50" relative="1" as="geometry">
            <mxPoint x="470" y="915" as="sourcePoint" />
            <mxPoint x="740" y="810" as="targetPoint" />
            <Array as="points" />
          </mxGeometry>
        </mxCell>
        <mxCell id="yjS9Mm-tfeJwQ1dK4dnb-52" value="&lt;span style=&quot;color: rgb(0, 0, 0); font-family: helvetica; font-size: 12px; font-style: normal; font-weight: 400; letter-spacing: normal; text-align: center; text-indent: 0px; text-transform: none; word-spacing: 0px; background-color: rgb(248, 249, 250); display: inline; float: none;&quot;&gt;Agency&lt;/span&gt;" style="text;whiteSpace=wrap;html=1;" vertex="1" parent="1">
          <mxGeometry x="750" y="835" width="70" height="30" as="geometry" />
        </mxCell>
        <mxCell id="yjS9Mm-tfeJwQ1dK4dnb-54" value="" style="endArrow=none;html=1;rounded=0;shape=link;entryX=0;entryY=0.5;entryDx=0;entryDy=0;fillColor=#f8cecc;strokeColor=#b85450;" edge="1" parent="1" target="yjS9Mm-tfeJwQ1dK4dnb-38">
          <mxGeometry width="50" height="50" relative="1" as="geometry">
            <mxPoint x="80" y="810" as="sourcePoint" />
            <mxPoint x="314.95000000000005" y="981.98" as="targetPoint" />
            <Array as="points" />
          </mxGeometry>
        </mxCell>
        <mxCell id="yjS9Mm-tfeJwQ1dK4dnb-55" value="" style="endArrow=none;html=1;rounded=0;shape=link;entryX=0;entryY=0.5;entryDx=0;entryDy=0;fillColor=#f8cecc;strokeColor=#b85450;" edge="1" parent="1" target="yjS9Mm-tfeJwQ1dK4dnb-41">
          <mxGeometry width="50" height="50" relative="1" as="geometry">
            <mxPoint x="80" y="810" as="sourcePoint" />
            <mxPoint x="324.95000000000005" y="991.98" as="targetPoint" />
            <Array as="points" />
          </mxGeometry>
        </mxCell>
        <mxCell id="yjS9Mm-tfeJwQ1dK4dnb-56" value="Admin" style="shape=umlActor;verticalLabelPosition=bottom;verticalAlign=top;html=1;outlineConnect=0;fillColor=#e6d0de;gradientColor=#d5739d;strokeColor=#996185;" vertex="1" parent="1">
          <mxGeometry x="40" y="1470" width="30" height="60" as="geometry" />
        </mxCell>
        <mxCell id="yjS9Mm-tfeJwQ1dK4dnb-57" value="Register" style="ellipse;whiteSpace=wrap;html=1;fillColor=#d5e8d4;strokeColor=#82b366;" vertex="1" parent="1">
          <mxGeometry x="370" y="1440" width="120" height="60" as="geometry" />
        </mxCell>
        <mxCell id="yjS9Mm-tfeJwQ1dK4dnb-58" value="Login" style="ellipse;whiteSpace=wrap;html=1;fillColor=#d5e8d4;strokeColor=#82b366;" vertex="1" parent="1">
          <mxGeometry x="370" y="1520" width="120" height="60" as="geometry" />
        </mxCell>
        <mxCell id="yjS9Mm-tfeJwQ1dK4dnb-59" value="manage&lt;br&gt;&amp;nbsp;categories" style="ellipse;whiteSpace=wrap;html=1;fillColor=#d5e8d4;strokeColor=#82b366;" vertex="1" parent="1">
          <mxGeometry x="370" y="1600" width="120" height="60" as="geometry" />
        </mxCell>
        <mxCell id="yjS9Mm-tfeJwQ1dK4dnb-60" value="manage&lt;br&gt;Companies" style="ellipse;whiteSpace=wrap;html=1;fillColor=#d5e8d4;strokeColor=#82b366;" vertex="1" parent="1">
          <mxGeometry x="370" y="1690" width="120" height="60" as="geometry" />
        </mxCell>
        <mxCell id="yjS9Mm-tfeJwQ1dK4dnb-63" value="" style="endArrow=none;html=1;rounded=0;shape=link;width=3;exitX=0;exitY=0.5;exitDx=0;exitDy=0;exitPerimeter=0;fillColor=#ffe6cc;strokeColor=#d79b00;" edge="1" parent="1" source="yjS9Mm-tfeJwQ1dK4dnb-57" target="yjS9Mm-tfeJwQ1dK4dnb-56">
          <mxGeometry width="50" height="50" relative="1" as="geometry">
            <mxPoint x="390" y="1640" as="sourcePoint" />
            <mxPoint x="440" y="1590" as="targetPoint" />
          </mxGeometry>
        </mxCell>
        <mxCell id="yjS9Mm-tfeJwQ1dK4dnb-64" value="" style="endArrow=none;html=1;rounded=0;shape=link;width=3;exitX=0;exitY=0.5;exitDx=0;exitDy=0;fillColor=#ffe6cc;strokeColor=#d79b00;" edge="1" parent="1" source="yjS9Mm-tfeJwQ1dK4dnb-58">
          <mxGeometry width="50" height="50" relative="1" as="geometry">
            <mxPoint x="380" y="1487.98" as="sourcePoint" />
            <mxPoint x="70" y="1500" as="targetPoint" />
          </mxGeometry>
        </mxCell>
        <mxCell id="yjS9Mm-tfeJwQ1dK4dnb-65" value="" style="endArrow=none;html=1;rounded=0;shape=link;width=3;exitX=0;exitY=0.5;exitDx=0;exitDy=0;fillColor=#ffe6cc;strokeColor=#d79b00;" edge="1" parent="1" source="yjS9Mm-tfeJwQ1dK4dnb-59">
          <mxGeometry width="50" height="50" relative="1" as="geometry">
            <mxPoint x="390" y="1497.98" as="sourcePoint" />
            <mxPoint x="70" y="1500" as="targetPoint" />
          </mxGeometry>
        </mxCell>
        <mxCell id="yjS9Mm-tfeJwQ1dK4dnb-66" value="" style="endArrow=none;html=1;rounded=0;shape=link;width=3;exitX=0;exitY=0.5;exitDx=0;exitDy=0;fillColor=#ffe6cc;strokeColor=#d79b00;" edge="1" parent="1" source="yjS9Mm-tfeJwQ1dK4dnb-60">
          <mxGeometry width="50" height="50" relative="1" as="geometry">
            <mxPoint x="400" y="1507.98" as="sourcePoint" />
            <mxPoint x="70" y="1500" as="targetPoint" />
          </mxGeometry>
        </mxCell>
      </root>
    </mxGraphModel>
  </diagram>
</mxfile>
